<?xml version="1.0" encoding="utf-8"?>
<!-- Generator: Adobe Illustrator 19.0.0, SVG Export Plug-In . SVG Version: 6.00 Build 0)  -->
<svg version="1.1" id="Layer_1" xmlns="http://www.w3.org/2000/svg" xmlns:xlink="http://www.w3.org/1999/xlink" x="0px" y="0px"
	 viewBox="0 0 500 500" style="enable-background:new 0 0 500 500;" xml:space="preserve">
<style type="text/css">
	.st0{display:none;fill:#FFFFFF;}
</style>
<g id="XMLID_1_">
	<path id="XMLID_100_" class="st0" d="M263.5,5C341.7,5,419.8,5,498,5c0,164.4,0,328.7,0,493.1c-164.4,0-328.7,0-493.1,0
		C5,333.7,5,169.3,5,5c79.8,0,159.5,0,239.3,0c-0.7,0.3-1.5,0.7-2.2,0.7C213.2,9,190.6,23,173.1,45.8c-1.3,1.7-3.2,3.1-5,4.2
		c-12.3,7.1-21.6,17-27.4,30c-7.2,16.2-7.5,33-3.5,49.9c2.6,11.1,6.6,21.9,10,33.2c-1.1,0.5-2.7,1.2-4.2,1.9
		c-14.7,7-24,22.4-23.2,38.4c0.8,16.9,11.2,31.7,27,36.7c5.1,1.7,6.2,4,5.9,8.8c-0.9,15.4,5.1,27.7,17,37.3c4.9,3.9,9.5,8.1,14,12.4
		c1.4,1.4,2.7,3.6,3,5.5c2,17-0.5,33.5-5.5,49.7c-1.3,4.1-3.5,5.7-7.4,6.9c-28.1,8.3-55.9,17.4-82.1,30.8
		c-37.9,19.4-60.3,49.6-62.1,93.2c-0.4,10.1,1.9,12.3,12.2,12.3c139.3,0,278.7,0,418,0c1.1,0,2.2,0,3.4,0c5.9-0.2,9.2-3.2,8.9-8.9
		c-0.5-8.4-0.7-17.1-2.7-25.2c-8.3-32.9-28.7-56.2-58.8-71.3c-26.9-13.4-55.2-22.8-83.9-31.5c-2-0.6-4.4-2.3-5.1-4.1
		c-5.7-15.5-7.8-31.6-7.1-48.1c0.2-4.7,1.5-8.5,5.6-11.4c3.8-2.7,6.9-6.2,10.6-9.1c13.3-10.3,19.8-23.6,18.5-40.5
		c-0.3-3.7,0.9-5.1,4.5-6.4c16.7-5.8,26.3-17.7,28.1-35.3c1.7-16.5-6.9-31.9-21.7-39.7c-1.2-0.6-2.4-1.3-3.9-2.2
		c6.1-13.7,8.9-27.9,9.7-42.5c1.2-23.7-6.2-43.8-25.2-58.3c-9.3-7.1-20.1-12.3-30.2-18.4c-1.2-0.7-2.6-1.2-4.5-2.1
		c1.5-0.9,2.1-1.3,2.8-1.7c5.2-2.6,8.2-6.6,7.7-12.6c-0.4-5.9-4.1-9.2-9.3-11.1c-6-2.2-12-4.6-18.1-6.3C280.7,8.3,272.1,6.8,263.5,5
		z"/>
	<path id="XMLID_89_" d="M263.5,5c8.6,1.8,17.2,3.3,25.7,5.6c6.2,1.6,12.1,4.1,18.1,6.3c5.2,1.9,8.8,5.2,9.3,11.1
		c0.4,6-2.5,10-7.7,12.6c-0.7,0.3-1.4,0.8-2.8,1.7c1.9,0.9,3.3,1.4,4.5,2.1c10.1,6,20.9,11.3,30.2,18.4
		c19.1,14.5,26.5,34.6,25.2,58.3c-0.8,14.7-3.6,28.8-9.7,42.5c1.5,0.8,2.7,1.5,3.9,2.2c14.8,7.8,23.4,23.2,21.7,39.7
		c-1.8,17.7-11.4,29.5-28.1,35.3c-3.6,1.2-4.8,2.7-4.5,6.4c1.3,16.9-5.2,30.2-18.5,40.5c-3.7,2.8-6.8,6.4-10.6,9.1
		c-4.1,2.9-5.4,6.7-5.6,11.4c-0.8,16.5,1.4,32.6,7.1,48.1c0.7,1.8,3.1,3.5,5.1,4.1c28.6,8.7,57,18.1,83.9,31.5
		c30.1,15,50.5,38.4,58.8,71.3c2.1,8.1,2.2,16.8,2.7,25.2c0.3,5.8-3,8.7-8.9,8.9c-1.1,0-2.2,0-3.4,0c-139.3,0-278.7,0-418,0
		c-10.3,0-12.6-2.2-12.2-12.3c1.7-43.7,24.1-73.8,62.1-93.2c26.1-13.4,54-22.4,82.1-30.8c3.9-1.2,6.1-2.8,7.4-6.9
		c5-16.3,7.5-32.7,5.5-49.7c-0.2-2-1.5-4.1-3-5.5c-4.5-4.3-9.2-8.5-14-12.4c-11.9-9.6-18-21.9-17-37.3c0.3-4.7-0.8-7.1-5.9-8.8
		c-15.8-5.1-26.1-19.8-27-36.7c-0.8-16,8.5-31.4,23.2-38.4c1.6-0.7,3.2-1.4,4.2-1.9c-3.4-11.2-7.4-22-10-33.2
		c-4-16.8-3.7-33.7,3.5-49.9c5.8-13,15.1-22.9,27.4-30c1.9-1.1,3.7-2.5,5-4.2C190.6,23,213.2,9,242.1,5.7c0.8-0.1,1.5-0.5,2.2-0.7
		C250.7,5,257.1,5,263.5,5z M294.9,29.5c-3.3-1.1-6.1-2.4-8.9-3c-8.4-1.7-16.9-3.9-25.4-4.6c-26.9-2.4-49.9,6.2-68,26.4
		c-6.4,7.1-12.4,13.9-20.7,19.3c-23.8,15.6-23.8,48-15.7,69.2c3.7-6.6,7-14.3,11.9-20.9c10.6-14.2,27-18.7,43.7-12.4
		c12.5,4.8,24.8,10.2,37.2,15.3c5.9,2.4,11.7,5.2,17.7,7.2c17.5,5.8,35.4,4.4,53.3,2.3c5.2-0.6,9.7,0.1,13.2,3.7
		c4.3,4.4,8.2,9.1,13.1,14.7c1.1-10.3,2.3-20.1,3.1-29.9c1.4-17.6-6-31.3-19.3-42.3c-10.4-8.6-22.3-14.2-34.9-18.8
		c-9.6-3.5-12-12.9-5.5-20.8C291.2,33.3,292.9,31.7,294.9,29.5z M349.3,179.2c0,5,0.1,9.5,0,13.9c-0.2,5.1-3.3,8.5-7.7,8.7
		c-4.6,0.2-8.2-3.3-8.6-8.5c-0.2-2.4,0-4.8-0.1-7.2c-0.1-7.5,0.2-15.1-0.3-22.6c-0.4-6.8-3-13.3-8.6-17c-2.9-2-8.1-0.6-12.3-0.7
		c-0.2,0-0.3,0-0.5,0.1c-21.8,1.7-43.1,0.3-63.4-9.2c-13.6-6.4-27.5-12-41.5-17.5c-11.7-4.6-22.5-0.9-28,10.4
		c-3.8,7.8-6.8,16.4-7.8,24.9c-1.6,12.5-1.1,25.2-1.5,37.9c-0.2,5.7-3.3,9.4-8.1,9.5c-4.9,0.1-8.2-3.6-8.3-9.6
		c-0.1-4.2,0-8.5,0-13.2c-1.7,0.7-2.6,0.9-3.4,1.4c-9.6,5-14.7,16.1-12.5,26.8c2.2,10.5,11.6,19,22.5,18.9c9.7-0.1,19.5-1,29.1-2.5
		c41.8-6.5,83.5-6.5,125.3,0c9.9,1.6,20.1,2.5,30.1,2.4c11.1-0.1,20.4-9.6,21.7-20.8C367,193.6,360.8,183.2,349.3,179.2z
		 M332.6,243.3c-54.5-10.8-108.8-10.8-163.3,0c-1.2,10.8-0.1,21.1,9.4,29.1c14.5,12.3,28.7,25,43,37.5c5,4.4,10.8,6.7,17.5,6.6
		c7.4-0.1,14.7-0.2,22.1,0c7.6,0.2,14-2.3,19.7-7.3c13.4-11.9,26.6-24,40.5-35.3C331.9,265.5,334.3,255.1,332.6,243.3z M204.4,317
		c-1.1,8.5-1.7,16.8-3.4,24.9c-1.8,8.2-4.7,16.2-7,24.4c-0.4,1.3-0.4,2.8-0.3,4.2c1.1,10.5,2.4,21,3.3,31.5c0.3,3.4,1.9,5.4,4.7,7.1
		c31.3,18.3,62.9,18.9,95,2.1c5-2.6,8-5.8,8.7-11.9c1.8-16,5.2-31.9-2.4-47.5c-0.8-1.5-1-3.4-1.3-5.1c-1.5-9.9-3-19.7-4.6-29.8
		c-2.1,1.8-4.3,3.6-6.4,5.5c-8,7-17.3,10.6-28.1,10.6c-4.3,0-8.7-0.3-13,0.1c-17.2,1.5-32.4-2.6-44.5-15.6
		C205.2,317.2,204.9,317.2,204.4,317z M157.6,440.1c-0.5-0.2-0.6-0.4-0.8-0.4c-3.7,0-7.4-0.1-11-0.1c-6.7-0.1-9.5-3.1-9.4-9.9
		c0.2-12.5,3.1-24.4,8.5-35.7c1.1-2.4,2.3-4.7,3.8-7.7c-1.5,0.3-2.3,0.4-3,0.7c-13.5,5.4-27.1,10.7-40.5,16.2
		c-19.9,8.1-35.5,21.4-46.9,39.6c-7.2,11.4-11.1,23.9-11.9,37.7c27.3,0,54.2,0,81.1,0c0.2-0.5,0.4-0.8,0.4-1.1c0-4.5,0-9,0.1-13.4
		c0.1-6,3.3-9.8,8.2-9.8c4.9,0,8.1,3.8,8.2,9.8c0,4.9,0,9.8,0,14.5c3.2,0,5.7,0,7.8,0C154,466.7,155.8,453.4,157.6,440.1z
		 M357.7,480.5c0-5,0-9.7,0-14.5c0-6.1,3.2-9.8,8.1-9.9c4.9-0.1,8.2,3.8,8.3,9.7c0.1,4.9,0,9.8,0,14.7c27.5,0,54.4,0,81.4,0
		c0-1.5,0.1-2.7,0-3.9c-3.9-29.3-19.3-51.5-44.6-65.8c-15.9-9-33.5-15-50.3-22.2c-2.1-0.9-4.3-1.4-7.4-2.4c1.1,2.2,1.7,3.3,2.3,4.4
		c6.3,12.1,9.9,24.9,10.3,38.6c0.2,7.6-2.5,10.4-10.2,10.5c-3.7,0-7.3,0-11,0c1.8,13.9,3.6,27.3,5.4,40.9
		C352.2,480.5,354.7,480.5,357.7,480.5z M203.7,429.2c0.2,1.6,0.2,2.4,0.4,3.1c5,17.1,13,32.6,24.5,46.3c1,1.2,3.2,2,4.9,2
		c11.7,0.2,23.4,0.2,35,0c1.9,0,4.3-1.2,5.5-2.6c10.7-13,18.5-27.5,23.4-43.6c0.5-1.5,0.8-3.1,1.4-5.4
		C266.8,443.1,235.6,443.1,203.7,429.2z M348.9,423.2c-3.1-18.4-10.7-33.5-24.5-46.6c-2.8,37.6-10.6,72.5-31.4,103.9
		c13.8,0,26.6,0,39.4,0c0-2.6,0.3-5-0.1-7.3c-2.1-12.6-4.2-25.2-6.8-37.7c-1.6-7.9,1.3-12.1,9.3-12.2
		C339.4,423.1,343.8,423.2,348.9,423.2z M177.6,376.5c-13.7,13.4-21.5,28.4-24.3,46.1c0.6,0.2,0.9,0.4,1.2,0.4
		c4.2,0.1,8.3,0.1,12.5,0.1c8.1,0.1,11.3,4.4,9.4,12.1c-1.7,7-3.5,14-4.7,21c-1.3,7.9-1.9,16-2.8,23.9c13.8,0,26.6,0,40.1,0
		C188,448.9,180.5,414,177.6,376.5z"/>
	<path id="XMLID_88_" class="st0" d="M294.9,29.5c-2,2.2-3.7,3.8-5.2,5.6c-6.6,7.9-4.2,17.3,5.5,20.8c12.6,4.5,24.5,10.2,34.9,18.8
		c13.3,11,20.7,24.7,19.3,42.3c-0.8,9.8-2,19.6-3.1,29.9c-5-5.6-8.9-10.3-13.1-14.7c-3.6-3.6-8-4.4-13.2-3.7
		c-17.8,2.1-35.8,3.6-53.3-2.3c-6-2-11.8-4.8-17.7-7.2c-12.4-5.1-24.7-10.6-37.2-15.3c-16.6-6.3-33-1.9-43.7,12.4
		c-4.9,6.5-8.2,14.2-11.9,20.9c-8.1-21.2-8.2-53.7,15.7-69.2c8.3-5.4,14.3-12.2,20.7-19.3c18.1-20.2,41.1-28.7,68-26.4
		c8.5,0.8,17,2.9,25.4,4.6C288.8,27.1,291.6,28.3,294.9,29.5z"/>
	<path id="XMLID_82_" class="st0" d="M349.3,179.2c11.5,4,17.7,14.4,16.2,26.1c-1.4,11.2-10.6,20.7-21.7,20.8
		c-10,0.1-20.2-0.8-30.1-2.4c-41.8-6.5-83.5-6.5-125.3,0c-9.6,1.5-19.4,2.4-29.1,2.5c-10.8,0.1-20.3-8.5-22.5-18.9
		c-2.2-10.7,2.9-21.8,12.5-26.8c0.8-0.4,1.7-0.7,3.4-1.4c0,4.7-0.1,9,0,13.2c0.1,6,3.4,9.8,8.3,9.6c4.7-0.1,7.9-3.8,8.1-9.5
		c0.4-12.6-0.1-25.4,1.5-37.9c1.1-8.5,4-17.2,7.8-24.9c5.5-11.3,16.3-15,28-10.4c14,5.5,27.9,11.2,41.5,17.5
		c20.3,9.5,41.6,10.9,63.4,9.2c0.2,0,0.3-0.1,0.5-0.1c4.2,0.1,9.4-1.3,12.3,0.7c5.5,3.7,8.2,10.2,8.6,17c0.4,7.5,0.2,15,0.3,22.6
		c0,2.4-0.1,4.8,0.1,7.2c0.4,5.2,4,8.7,8.6,8.5c4.5-0.2,7.6-3.6,7.7-8.7C349.5,188.6,349.3,184.2,349.3,179.2z M209.8,177.1
		c5.4,0,10.9,0.1,16.3,0c5-0.1,8.4-3.4,8.6-7.9c0.2-4.6-3.4-8.4-8.5-8.4c-10.7-0.2-21.4-0.2-32.1,0c-5.3,0.1-8.6,3.6-8.4,8.4
		c0.1,4.6,3.3,7.7,8.4,7.9C199.2,177.2,204.5,177.1,209.8,177.1z M291.7,177.1c5.4,0,10.9,0.1,16.3,0c5.2-0.1,8.4-3.1,8.5-7.8
		c0.2-4.8-3.1-8.4-8.3-8.5c-10.7-0.2-21.4-0.2-32.1,0c-5.2,0.1-8.7,3.7-8.6,8.3c0.1,4.6,3.6,7.9,8.9,8
		C281.5,177.2,286.6,177.1,291.7,177.1z M209.9,185.6C209.9,185.6,209.9,185.5,209.9,185.6c-2.9,0-5.8-0.2-8.6,0
		c-4.3,0.2-6.8,2.8-7.5,6.8c-0.6,3.9,1.3,6.6,4.7,8.7c1.7,1,2.7,3,4.3,4.2c2.3,1.7,4.9,4.2,7.3,4.2c2.4,0,5-2.6,7.3-4.3
		c1.6-1.2,2.7-3.2,4.4-4.2c3.4-2.1,5-4.9,4.4-8.8c-0.6-3.9-3.1-6.3-7.1-6.6C216,185.4,212.9,185.6,209.9,185.6z M292.2,185.5
		C292.2,185.5,292.2,185.5,292.2,185.5c-2.9,0-5.8-0.1-8.6,0c-4.2,0.2-6.9,2.4-7.6,6.6c-0.7,4.1,1,7,4.8,9c1.5,0.8,2.4,2.5,3.8,3.6
		c2.4,1.8,4.9,4.7,7.4,4.8c2.5,0,5.1-2.8,7.6-4.5c1.5-1.1,2.5-2.9,4.1-3.9c3.4-2,5.3-4.7,4.7-8.6c-0.6-4-3.2-6.6-7.4-6.9
		C297.9,185.4,295.1,185.5,292.2,185.5z"/>
	<path id="XMLID_81_" class="st0" d="M332.6,243.3c1.7,11.8-0.7,22.2-11,30.7c-13.9,11.3-27.1,23.4-40.5,35.3
		c-5.7,5-12,7.6-19.7,7.3c-7.4-0.2-14.7-0.1-22.1,0c-6.7,0.1-12.5-2.2-17.5-6.6c-14.3-12.6-28.5-25.3-43-37.5
		c-9.5-8-10.6-18.3-9.4-29.1C223.8,232.5,278.1,232.5,332.6,243.3z"/>
	<path id="XMLID_80_" class="st0" d="M204.4,317c0.4,0.2,0.8,0.2,1,0.4c12.1,12.9,27.2,17.1,44.5,15.6c4.3-0.4,8.6-0.1,13-0.1
		c10.7,0.1,20-3.5,28.1-10.6c2.1-1.9,4.3-3.7,6.4-5.5c1.5,10.1,3,20,4.6,29.8c0.3,1.7,0.5,3.6,1.3,5.1c7.6,15.5,4.2,31.5,2.4,47.5
		c-0.7,6.1-3.7,9.3-8.7,11.9c-32.1,16.8-63.7,16.2-95-2.1c-2.9-1.7-4.4-3.7-4.7-7.1c-1-10.5-2.3-21-3.3-31.5
		c-0.1-1.4-0.1-2.9,0.3-4.2c2.3-8.1,5.2-16.1,7-24.4C202.8,333.8,203.3,325.5,204.4,317z"/>
	<path id="XMLID_79_" class="st0" d="M157.6,440.1c-1.8,13.3-3.6,26.6-5.4,40.3c-2.1,0-4.6,0-7.8,0c0-4.7,0-9.6,0-14.5
		c-0.1-6-3.3-9.8-8.2-9.8c-4.9,0-8.1,3.8-8.2,9.8c-0.1,4.5-0.1,9-0.1,13.4c0,0.3-0.2,0.6-0.4,1.1c-26.9,0-53.8,0-81.1,0
		c0.9-13.8,4.7-26.2,11.9-37.7c11.4-18.2,27-31.5,46.9-39.6c13.5-5.5,27-10.8,40.5-16.2c0.7-0.3,1.5-0.3,3-0.7
		c-1.5,3-2.7,5.4-3.8,7.7c-5.4,11.3-8.3,23.1-8.5,35.7c-0.1,6.8,2.7,9.7,9.4,9.9c3.7,0.1,7.4,0.1,11,0.1
		C156.9,439.7,157.1,439.8,157.6,440.1z"/>
	<path id="XMLID_78_" class="st0" d="M357.7,480.5c-3,0-5.5,0-7.8,0c-1.8-13.6-3.6-27-5.4-40.9c3.7,0,7.4,0,11,0
		c7.8-0.1,10.4-2.8,10.2-10.5c-0.3-13.7-3.9-26.5-10.3-38.6c-0.6-1.1-1.1-2.2-2.3-4.4c3.1,1,5.3,1.5,7.4,2.4
		c16.9,7.3,34.5,13.3,50.3,22.2c25.3,14.3,40.6,36.5,44.6,65.8c0.2,1.2,0,2.5,0,3.9c-27,0-53.8,0-81.4,0c0-4.9,0-9.8,0-14.7
		c-0.1-6-3.4-9.8-8.3-9.7c-4.9,0.1-8,3.8-8.1,9.9C357.6,470.7,357.7,475.5,357.7,480.5z"/>
	<path id="XMLID_77_" class="st0" d="M203.7,429.2c31.9,13.9,63.1,13.9,95.1-0.2c-0.6,2.2-1,3.8-1.4,5.4
		c-4.9,16.1-12.7,30.7-23.4,43.6c-1.2,1.4-3.6,2.6-5.5,2.6c-11.7,0.2-23.4,0.2-35,0c-1.7,0-3.8-0.8-4.9-2
		c-11.4-13.7-19.5-29.2-24.5-46.3C203.9,431.6,203.9,430.8,203.7,429.2z"/>
	<path id="XMLID_76_" class="st0" d="M348.9,423.2c-5.1,0-9.5-0.1-14,0c-8,0.1-10.9,4.4-9.3,12.2c2.6,12.5,4.7,25.1,6.8,37.7
		c0.4,2.3,0.1,4.7,0.1,7.3c-12.9,0-25.6,0-39.4,0c20.8-31.3,28.6-66.3,31.4-103.9C338.1,389.7,345.8,404.8,348.9,423.2z"/>
	<path id="XMLID_75_" class="st0" d="M177.6,376.5c2.9,37.5,10.4,72.3,31.4,103.7c-13.5,0-26.2,0-40.1,0c0.9-8,1.5-16,2.8-23.9
		c1.2-7.1,3-14.1,4.7-21c1.9-7.7-1.4-12-9.4-12.1c-4.2-0.1-8.3-0.1-12.5-0.1c-0.3,0-0.6-0.2-1.2-0.4
		C156.1,404.9,163.9,389.9,177.6,376.5z"/>
	<path id="XMLID_74_" d="M209.8,177.1c-5.3,0-10.5,0.1-15.8,0c-5.1-0.1-8.3-3.2-8.4-7.9c-0.1-4.8,3.2-8.3,8.4-8.4
		c10.7-0.2,21.4-0.2,32.1,0c5.1,0.1,8.7,3.9,8.5,8.4c-0.1,4.5-3.6,7.7-8.6,7.9C220.6,177.2,215.2,177.1,209.8,177.1z"/>
	<path id="XMLID_73_" d="M291.7,177.1c-5.1,0-10.2,0.1-15.3,0c-5.3-0.1-8.8-3.3-8.9-8c-0.1-4.6,3.5-8.3,8.6-8.3
		c10.7-0.1,21.4-0.2,32.1,0c5.2,0.1,8.5,3.7,8.3,8.5c-0.2,4.6-3.3,7.6-8.5,7.8C302.5,177.2,297.1,177.1,291.7,177.1z"/>
	<path id="XMLID_72_" d="M209.9,185.6c3,0,6.1-0.2,9.1,0c4,0.3,6.5,2.7,7.1,6.6c0.6,3.9-1,6.7-4.4,8.8c-1.7,1-2.8,3-4.4,4.2
		c-2.3,1.7-4.8,4.3-7.3,4.3c-2.4,0-5-2.5-7.3-4.2c-1.6-1.2-2.6-3.2-4.3-4.2c-3.4-2-5.3-4.8-4.7-8.7c0.7-4,3.2-6.6,7.5-6.8
		C204.1,185.4,207,185.5,209.9,185.6C209.9,185.5,209.9,185.6,209.9,185.6z"/>
	<path id="XMLID_71_" d="M292.2,185.5c2.9,0,5.8-0.1,8.6,0c4.3,0.3,6.8,2.9,7.4,6.9c0.6,3.9-1.3,6.6-4.7,8.6
		c-1.6,0.9-2.6,2.8-4.1,3.9c-2.4,1.8-5,4.6-7.6,4.5c-2.5,0-5-2.9-7.4-4.8c-1.4-1-2.3-2.8-3.8-3.6c-3.8-2-5.5-4.9-4.8-9
		c0.7-4.2,3.4-6.4,7.6-6.6C286.4,185.4,289.3,185.5,292.2,185.5C292.2,185.5,292.2,185.5,292.2,185.5z"/>
</g>
</svg>
