<?xml version="1.0" encoding="utf-8"?>
<!-- Generator: Adobe Illustrator 19.0.0, SVG Export Plug-In . SVG Version: 6.00 Build 0)  -->
<svg version="1.1" id="Layer_1" xmlns="http://www.w3.org/2000/svg" xmlns:xlink="http://www.w3.org/1999/xlink" x="0px" y="0px"
	 viewBox="-99 101 300 300" style="enable-background:new -99 101 300 300;" xml:space="preserve">
<style type="text/css">
	.st0{clip-path:url(#SVGID_2_);fill:#2B6AA6;}
	.st1{clip-path:url(#SVGID_4_);fill:#40C0CF;}
	.st2{clip-path:url(#SVGID_6_);fill:#2B6AA6;}
	.st3{clip-path:url(#SVGID_8_);fill:#2B6AA6;}
	.st4{clip-path:url(#SVGID_10_);fill:#2B6AA6;}
	.st5{clip-path:url(#SVGID_12_);fill:#2B6AA6;}
	.st6{clip-path:url(#SVGID_14_);fill:#2B6AA6;}
	.st7{clip-path:url(#SVGID_16_);fill:#2B6AA6;}
</style>
<g id="XMLID_11_">
	<g>
		<g>
			<defs>
				<rect id="SVGID_1_" x="-163.7" y="62.2" width="434" height="434"/>
			</defs>
			<clipPath id="SVGID_2_">
				<use xlink:href="#SVGID_1_"  style="overflow:visible;"/>
			</clipPath>
			<path id="XMLID_9_" class="st0" d="M89.1,174.6c-0.4-0.6-0.2-1.2-0.2-2c0-5.1,0-10,0-15.2c0-13.3-5.8-23.5-17.1-30.5
				c-7.2-4.5-15.1-5.8-23.5-4.7c-8.1,1-15,4.5-20.5,10.4c-5.3,5.6-8.5,12.1-9.5,19.8c-0.2,1.7-0.3,3.6-0.3,5.4c0,10.7,0,21.4,0,32.1
				c0,2.7,0.2,2.5-2.6,2.5c-10.9,0-21.7,0-32.6,0c-10.3,0-18.9,3.7-26,11.2c-6.8,7.2-9.9,15.7-9,25.6c0.4,4.6,2.1,8.8,4.3,12.8
				c1.5,2.6,3.2,5.1,5.4,7.2c3.7,3.6,8.2,5.4,13.5,5.3c5.8-0.1,11.1-1.6,16-4.6c2.5-1.6,4.9-3.3,7.4-5.1c1.6-1.1,3.1-2.3,4.8-3.3
				c2.8-1.7,6.1-2.7,9.4-2.8c0.9,0,1.7,0,2.5,0c5.2,0.1,10.4,0.1,15.6,0.2c2,0,3.8,0.2,5.8,0.3c1,0,1.7,0.3,2.5,0.9
				c0.6,0.5,0.7,1.4,0.2,2c-0.9,0.9-1.9,1.2-3,1.6c-2.4,0.6-4.8,1.2-7.2,1.9c-3,0.7-5.8,1.5-8.7,2.2c-0.9,0.2-1.7,0.5-2.5,0.9
				c-0.2,0.1-0.3,0.3-0.4,0.4c-0.1,0.3,0.2,0.4,0.3,0.5c1.9,0.9,3.8,1.2,5.8,1.5c3.8,0.3,7.7-0.2,11.4-1.1
				c5.9-1.5,11.4-4.2,16.3-7.9c5.1-4,10.4-7.8,15.7-11.4c0.9-0.6,1.7-1.1,2.7-1.7c0.7-0.4,1.6-0.6,2.4-0.7c1.1-0.1,2.1,0.4,2.6,1.4
				s0.4,1.9-0.2,2.7c-0.5,0.6-1,1.2-1.7,1.7c-4.2,3.8-8.3,7.7-12.5,11.5c-3.1,2.8-6.2,5.8-9.3,8.6c-5.2,4.6-10.8,8.8-17,11.9
				c-6.2,3.1-12.6,5.6-19.4,7.4c-7.3,2.1-14.9,3.2-22.5,3.5c-7.8,0.1-15.7-0.5-23.1-3.2c-16.3-6.1-26.7-17.6-31-34.4
				c-2.5-9.9-2.2-19.6,1.5-29.1c5.8-15.4,16.8-25.4,32.6-30.2c5.3-1.7,10.8-2,16.3-2.1c5.3-0.1,10.7-0.1,16-0.1c0.5,0,1,0,1.6,0
				c0.4,0,0.7-0.2,0.7-0.6c0-0.6,0-1.2,0-1.7c0-4.8,0-9.7,0-14.5c0-3.8,0.2-7.8,0.9-11.8c0.5-3.8,1.6-7.7,3.2-11.2
				c3.3-7.3,7.8-13.9,13.9-18.9c5.8-4.9,12.5-8.1,19.9-9.8c4.2-1,8.5-1.5,12.8-1.5c11.8,0.2,22.1,4.2,31,11.9
				c8.7,7.5,14.1,17,16.2,28.3c0.5,3,0.7,5.8,0.9,8.8c0.1,4.4,0.1,8.9,0.2,13.3c0,0.7-0.2,1.1-1,1.4c-3.7,1.2-7.5,2.4-11.4,3.7
				C89.4,174.6,89.2,174.6,89.1,174.6"/>
		</g>
	</g>
	<g>
		<g>
			<defs>
				<rect id="SVGID_3_" x="-163.7" y="62.2" width="434" height="434"/>
			</defs>
			<clipPath id="SVGID_4_">
				<use xlink:href="#SVGID_3_"  style="overflow:visible;"/>
			</clipPath>
			<path id="XMLID_8_" class="st1" d="M88.9,280.7c0-5.7,0-11.3,0-17c0-0.6,0-1.2,0-1.7c0-0.4,0.3-0.7,0.7-0.7c0.6,0,1.4,0,2,0
				c10.8,0,21.5,0,32.4,0c12,0,21.7-5.1,29-14.6c3.1-4.2,5.1-9,5.9-14.2c1-6.3-0.1-12.3-2.7-18.1c-1.7-3.7-4-7.2-7-9.9
				c-2.6-2.5-5.7-4.2-9.2-4.9c-2.3-0.5-4.7-0.4-7-0.2c-4.1,0.4-7.9,1.5-11.5,3.6c-2.7,1.6-5.2,3.3-7.7,5.1c-2.2,1.6-4.3,3.2-6.7,4.6
				c-2.6,1.5-5.3,2.4-8.4,2.4c-6.8,0-13.5,0-20.3-0.1c-1.5,0-3.1-0.2-4.5-0.3c-0.9-0.1-1.6-0.3-2.3-1c-0.6-0.5-0.6-1.4,0-2
				c0.7-0.9,1.7-1.1,2.7-1.5c1.7-0.5,3.7-1,5.4-1.5c3.7-1,7.3-1.7,10.9-2.8c1-0.2,2.1-0.2,2.6-1.4c-0.7-0.7-1.7-0.9-2.6-1.1
				c-3-1-5.9-0.9-9-0.5c-3.7,0.4-7.5,1.4-11.1,2.7c-4.3,1.7-8.3,4-11.9,6.9c-5.1,4-10.3,7.7-15.6,11.2c-1.1,0.9-2.4,1.6-3.8,1.9
				c-1.4,0.3-2.5-0.1-3.1-1c-0.7-1-0.6-2.2,0.2-3.3c0.3-0.5,0.9-1,1.2-1.2c3.1-2.8,6.1-5.6,9.2-8.4c4.2-3.8,8.4-7.8,12.6-11.6
				c6.9-6.3,14.7-11.3,23.4-14.9c7.3-3.1,14.9-5.4,22.6-6.8c3.5-0.6,7-1,10.6-1.1c1,0,2-0.1,3-0.2c0.3,0,0.6-0.1,1,0
				c3.2,0.3,6.5,0.2,9.7,0.6c3.2,0.4,6.4,1,9.5,1.9c6.1,1.7,11.6,4.5,16.6,8.5c8.8,6.9,14.4,16,17.2,26.7c1.5,5.8,1.7,11.6,1.4,17.5
				c-0.3,4.7-1.6,9.2-3.3,13.5c-2.6,6.3-6.3,11.9-11.2,16.6c-6.9,6.6-15.1,11-24.4,12.9c-4.1,0.9-8.2,1.2-12.4,1.2
				c-5.3,0-10.7,0-16,0c-0.6,0-1.2,0-1.7,0c-0.4,0-0.7,0.2-0.7,0.7c0,0.6-0.1,1.4-0.1,2c0,6.1,0,12,0,18.1
				c-0.2,12.4-4.5,23.3-12.4,32.7c-3.8,4.6-8.5,8.3-13.9,11.1c-4.3,2.2-8.9,3.7-13.6,4.6c-4.5,0.9-9.2,1.1-13.7,0.9
				c-3.1-0.2-6.3-0.7-9.3-1.7c-7.5-2.2-14.1-5.8-19.9-11.2c-6.4-5.8-10.9-13-13.5-21.3c-1.4-4.4-2.1-8.9-2.3-13.5
				c-0.2-4.2-0.2-8.4-0.2-12.6c0-0.4,0-1,0-1.4c-0.1-1,0.4-1.5,1.4-1.7c3.6-1.1,7.2-2.3,10.8-3.5c0.7-0.2,1-0.1,1,0.7
				c0.3,4.4,0.3,8.7,0.2,13.1c0,1.1-0.2,2.2-0.2,3.3c0,6.3,1.5,12.3,4.7,17.7c3.8,6.6,9.2,11.5,16.1,14.6c3,1.2,5.9,2.1,9.2,2.6
				c2.8,0.5,5.8,0.5,8.6,0.3c6.7-0.5,12.8-2.7,18.2-6.7c4.3-3.1,7.7-7,10-11.8c1.9-3.6,3.1-7.4,3.7-11.5c0.3-2,0.4-3.8,0.4-5.8
				C88.9,290.7,88.9,285.8,88.9,280.7"/>
		</g>
	</g>
	<g>
		<g>
			<defs>
				<rect id="SVGID_5_" x="-127.1" y="107" width="361.3" height="361.3"/>
			</defs>
			<clipPath id="SVGID_6_">
				<use xlink:href="#SVGID_5_"  style="overflow:visible;"/>
			</clipPath>
			<path id="XMLID_7_" class="st2" d="M64.1,374.5c0-4.6,0-9.2,0-13.8c0-0.6,0-1.3,0.1-1.9c0.1-0.9,0.5-1.3,1.4-1.4
				c0.4-0.1,1,0,1.5,0c6.7,0,13.3,0,20.1,0c0.3,0,0.5,0,0.7,0c1.9,0.1,2.2,0.3,2.3,2.3c0,0.9,0,1.7,0,2.6c-0.1,1-0.5,1.4-1.5,1.5
				c-0.5,0.1-1.1,0-1.7,0c-4.2,0-8.4,0-12.6,0c-0.6,0-1.3,0-1.9,0.1c-0.4,0-0.8,0.3-0.8,0.8c0,1.9,0,3.8,0,5.8c0,0.6,0.3,0.9,1,0.9
				c0.5,0,1.1,0,1.7,0c3.5,0,6.9,0,10.4,0c0.5,0,1.1,0,1.7,0c1.1,0.1,1.6,0.5,1.7,1.7c0.1,1,0.1,2.1,0,3.1c-0.1,1.2-0.4,1.7-1.6,1.7
				c-0.5,0.1-1.1,0-1.7,0c-3.6,0-7.1,0-10.6,0c-0.5,0-1.1,0-1.7,0.1c-0.4,0-0.7,0.3-0.7,0.8c0,1.8,0,3.7,0,5.6
				c0,0.4,0.3,0.8,0.8,0.8c0.6,0.1,1.3,0.1,1.9,0.1c3.8,0,7.8,0,11.6,0c0.5,0,1,0,1.5,0c2.5,0,2.7,0.2,2.7,2.8c0,0.8,0,1.7-0.1,2.4
				c-0.1,0.8-0.5,1.1-1.2,1.2c-0.4,0.1-1,0-1.5,0c-6.9,0-13.7,0-20.6,0c-2.4,0-2.6-0.2-2.6-2.6C64.1,384.2,64.1,379.3,64.1,374.5"/>
		</g>
	</g>
	<g>
		<g>
			<defs>
				<rect id="SVGID_7_" x="-127.1" y="107" width="361.3" height="361.3"/>
			</defs>
			<clipPath id="SVGID_8_">
				<use xlink:href="#SVGID_7_"  style="overflow:visible;"/>
			</clipPath>
			<path id="XMLID_6_" class="st3" d="M110.4,392.3c-4.4-0.1-8.6-1-12.4-3.5c-0.2-0.1-0.3-0.2-0.4-0.3c-2.1-1.4-2.2-1.7-0.7-3.8
				c0.5-0.8,1.1-1.6,1.7-2.4c0.4-0.6,1-0.8,1.7-0.4c0.5,0.3,1,0.6,1.5,0.9c2.5,1.4,5.2,2.4,8.2,2.7c1.4,0.1,2.7,0,4.1-0.4
				c1.9-0.7,3.1-2,3-3.4c-0.2-1.8-1.6-2.5-3.1-3c-1.7-0.5-3.7-0.8-5.4-1.1c-1.5-0.3-3-0.6-4.4-1c-2-0.5-3.9-1.6-5.5-3
				c-1.3-1.1-2.1-2.6-2.5-4.3c-1-4.4,0.9-8.4,4.9-10.6c1.8-1,3.7-1.4,5.8-1.7c4.9-0.5,9.5,0.3,13.7,2.8c0.2,0.1,0.4,0.3,0.6,0.3
				c1.3,0.7,1.8,1.6,0.5,3.1c-0.6,0.8-1.1,1.6-1.7,2.4c-0.9,1.1-1.2,1.2-2.4,0.6c-0.3-0.2-0.7-0.4-1-0.6c-1.8-1-3.7-1.6-5.7-1.9
				c-1.7-0.3-3.2-0.1-4.8,0.4c-0.6,0.2-1.2,0.5-1.7,0.9c-1.2,1-1.1,2.8,0.1,3.7c0.8,0.6,1.7,0.9,2.7,1.1c2.2,0.5,4.4,1,6.6,1.5
				c1.3,0.3,2.7,0.6,4,1c1.3,0.4,2.5,1,3.6,1.9c1.9,1.6,3.1,3.5,3.1,6c0,1,0,1.9,0,2.9c-0.3,2.7-1.6,4.9-3.7,6.5
				c-1.9,1.4-4.2,2.1-6.5,2.4C112.8,392.2,111.6,392.2,110.4,392.3"/>
		</g>
	</g>
	<g>
		<g>
			<defs>
				<rect id="SVGID_9_" x="-127.1" y="107" width="361.3" height="361.3"/>
			</defs>
			<clipPath id="SVGID_10_">
				<use xlink:href="#SVGID_9_"  style="overflow:visible;"/>
			</clipPath>
			<path id="XMLID_5_" class="st4" d="M143.2,392.2c-4.3,0-8.5-1-12.3-3.5c-2.3-1.4-2.4-1.9-0.8-4.2c0.5-0.7,1-1.5,1.6-2.2
				c0.5-0.6,1-0.8,1.7-0.4c0.6,0.3,1.1,0.7,1.7,1c2.4,1.3,5,2.3,7.8,2.5c1.1,0.1,2.3,0.1,3.4-0.2c1.1-0.2,2.2-0.7,3-1.5
				c1.4-1.4,1.2-3.2-0.3-4.4c-0.7-0.5-1.6-0.8-2.4-1c-2.3-0.4-4.6-0.9-6.9-1.4c-1.1-0.3-2.4-0.6-3.5-1c-1.3-0.4-2.4-1.1-3.6-1.9
				c-5.1-3.6-4.3-12.4,1-15.2c2-1,4-1.7,6.2-2c4.5-0.5,8.8,0,12.9,2.2c0.7,0.3,1.4,0.8,2.1,1.2c1,0.7,1.1,1.3,0.5,2.3
				c-0.8,1.1-1.6,2.3-2.4,3.3c-0.4,0.6-1,0.7-1.7,0.4c-0.5-0.3-1-0.5-1.5-0.8c-1.7-1-3.6-1.6-5.5-1.8c-1.7-0.3-3.4-0.2-5,0.3
				c-0.6,0.2-1.2,0.5-1.7,0.9c-1.3,1-1.2,2.7,0.1,3.7c0.8,0.6,1.7,0.9,2.7,1.1c2.2,0.5,4.4,1,6.6,1.5c1.2,0.3,2.5,0.6,3.7,1
				c0.6,0.2,1.2,0.4,1.8,0.7c3.1,1.6,5.1,3.9,5.3,7.5c0.3,5.2-1.9,8.7-6.4,10.6C148.6,392,146.1,392.3,143.2,392.2"/>
		</g>
	</g>
	<g>
		<g>
			<defs>
				<rect id="SVGID_11_" x="-127.1" y="107" width="361.3" height="361.3"/>
			</defs>
			<clipPath id="SVGID_12_">
				<use xlink:href="#SVGID_11_"  style="overflow:visible;"/>
			</clipPath>
			<path id="XMLID_4_" class="st5" d="M5.1,392.3c-5.9,0-10.8-2.3-14.6-6.8c-5.1-6.2-5.2-14.9-0.3-21.3c7.5-9.8,21.8-9.7,29.4-0.4
				c1.7,2.1,1.6,2.5-1,3.6c-0.8,0.3-1.7,0.6-2.4,1c-1,0.4-2,0.3-2.8-0.7c-0.5-0.6-1.1-1.1-1.7-1.7c-6.5-5.1-14.6-1.5-16.9,5.2
				c-1.7,4.8,0.3,10,4.8,12.7c4.2,2.6,9.6,2,13.2-1.5c0.3-0.3,0.7-0.7,1-1c0.6-0.8,1.4-1,2.4-0.6c1.3,0.5,2.5,1,3.8,1.5
				c1,0.4,1.2,1.1,0.6,2.1c-1,1.7-2.4,3.1-3.9,4.2C13.1,391,9.3,392.3,5.1,392.3"/>
		</g>
	</g>
	<g>
		<g>
			<defs>
				<rect id="SVGID_13_" x="-127.1" y="107" width="361.3" height="361.3"/>
			</defs>
			<clipPath id="SVGID_14_">
				<use xlink:href="#SVGID_13_"  style="overflow:visible;"/>
			</clipPath>
			<path id="XMLID_3_" class="st6" d="M42.8,392.3c-8.7,0.1-16-5.9-17.8-13.3c-1.7-6.8,0.3-12.6,5.4-17.3c7.6-6.9,19.4-6.2,26.3,1.5
				c0.6,0.6,1.1,1.4,1.6,2.2c0.3,0.5,0.1,1.2-0.4,1.5c-1.6,0.7-3.1,1.3-4.7,1.8c-0.7,0.3-1.2,0-1.7-0.5c-0.4-0.4-0.9-1-1.4-1.4
				c-3.6-3.1-8.1-3.8-12.1-1.7c-3.9,2-6.5,6.5-6,10.8c0.5,4.6,3.7,8.6,8.3,9.7c3.9,1,7.3-0.1,10.3-2.9c0.4-0.3,0.8-0.9,1.1-1.3
				c0.4-0.5,1-0.7,1.7-0.4c1.4,0.5,2.9,1,4.3,1.7c0.9,0.4,1.1,1.1,0.5,2c-0.5,0.7-1,1.5-1.7,2.1C52.8,390.3,48.2,392.2,42.8,392.3"
				/>
		</g>
	</g>
	<g>
		<g>
			<defs>
				<rect id="SVGID_15_" x="-127.1" y="107" width="361.3" height="361.3"/>
			</defs>
			<clipPath id="SVGID_16_">
				<use xlink:href="#SVGID_15_"  style="overflow:visible;"/>
			</clipPath>
			<path id="XMLID_12_" class="st7" d="M-17.9,391.6c-0.7,0-1.5,0-2.2,0c-1,0-1.7-0.4-2.1-1.3c-0.5-1-1-1.8-1.5-2.8
				c-0.3-0.8-1-1.2-1.8-1.2c-4.4,0-8.9,0.1-13.3,0c-1,0-1.7,0.4-2,1.3c-0.4,1-1,1.8-1.4,2.8c-0.4,0.8-1,1.1-1.9,1.1
				c-1.6,0-3.2,0-4.8,0c-1,0-1.5-0.6-1-1.7c0.3-0.6,0.6-1.1,0.9-1.7c5.1-9.6,10.2-19.2,15.3-28.8c0.3-0.5,0.6-1.1,1-1.7
				c0.3-0.4,1.1-0.4,1.5,0.1c0.3,0.4,0.6,1,0.9,1.5c5.2,9.8,10.5,19.6,15.6,29.4c1.3,2.4,1,2.8-1.7,2.9
				C-17.1,391.6-17.5,391.6-17.9,391.6L-17.9,391.6z M-28.3,380c0.2-0.5,0-0.9-0.2-1.2c-1-2.1-2.1-4.2-3.1-6.3
				c-0.2-0.3-0.3-0.7-0.8-0.7c-2.4,4.3-3.5,6.6-3.7,8.3C-33.4,380-30.8,380.1-28.3,380"/>
		</g>
	</g>
</g>
</svg>
