<?xml version="1.0" encoding="utf-8"?>
<!-- Generator: Adobe Illustrator 19.0.0, SVG Export Plug-In . SVG Version: 6.00 Build 0)  -->
<svg version="1.1" id="Layer_1" xmlns="http://www.w3.org/2000/svg" xmlns:xlink="http://www.w3.org/1999/xlink" x="0px" y="0px"
	 viewBox="0 0 300 300" style="enable-background:new 0 0 300 300;" xml:space="preserve">
<style type="text/css">
	.st0{clip-path:url(#SVGID_1_);fill:#2B6AA6;}
	.st1{clip-path:url(#SVGID_1_);fill:#40C0CF;}
</style>
<g id="XMLID_11_">
	<defs>
		<rect id="SVGID_3_" x="-55.7" y="-34.7" width="414.3" height="414.3"/>
	</defs>
	<clipPath id="SVGID_1_">
		<use xlink:href="#SVGID_3_"  style="overflow:visible;"/>
	</clipPath>
	<path id="XMLID_9_" class="st0" d="M185.6,72.6c-0.4-0.6-0.2-1.2-0.2-1.9c0-4.8,0-9.6,0-14.5c0-12.7-5.6-22.4-16.3-29.1
		c-6.8-4.3-14.4-5.6-22.4-4.5c-7.7,1-14.3,4.3-19.6,9.9c-5.1,5.3-8.1,11.6-9.1,18.9c-0.2,1.7-0.3,3.4-0.3,5.2c0,10.2,0,20.4,0,30.6
		c0,2.6,0.2,2.4-2.5,2.4c-10.4,0-20.7,0-31.1,0c-9.8,0-18.1,3.6-24.8,10.7c-6.5,6.8-9.4,15-8.6,24.5c0.4,4.4,2,8.4,4.1,12.2
		c1.4,2.5,3.1,4.8,5.2,6.8c3.6,3.4,7.8,5.2,12.9,5.1c5.5-0.1,10.6-1.5,15.3-4.4c2.4-1.5,4.7-3.2,7.1-4.9c1.5-1.1,3-2.2,4.6-3.2
		c2.7-1.7,5.8-2.6,9-2.7c0.8,0,1.6,0,2.4,0c5,0.1,9.9,0.1,14.9,0.2c1.9,0,3.7,0.2,5.6,0.3c0.9,0,1.7,0.3,2.4,0.8
		c0.6,0.5,0.7,1.3,0.2,1.9c-0.8,0.8-1.8,1.2-2.8,1.5c-2.3,0.6-4.6,1.2-6.9,1.8c-2.8,0.7-5.6,1.4-8.3,2.1c-0.8,0.2-1.6,0.5-2.4,0.8
		c-0.2,0.1-0.3,0.3-0.4,0.4c-0.1,0.3,0.2,0.4,0.3,0.5c1.8,0.8,3.7,1.2,5.6,1.4c3.7,0.3,7.3-0.2,10.9-1.1c5.7-1.4,10.9-4,15.6-7.6
		c4.9-3.8,9.9-7.4,15-10.9c0.8-0.6,1.7-1.1,2.6-1.6c0.7-0.4,1.5-0.6,2.3-0.7c1.1-0.1,2,0.4,2.5,1.3c0.5,0.9,0.4,1.8-0.2,2.6
		c-0.5,0.6-1,1.2-1.6,1.7c-4,3.7-7.9,7.3-11.9,11c-3,2.7-5.9,5.5-8.9,8.2c-5,4.4-10.3,8.4-16.2,11.3c-5.9,3-12.1,5.3-18.5,7.1
		c-7,2-14.2,3.1-21.5,3.3c-7.5,0.1-15-0.5-22.1-3.1c-15.6-5.8-25.5-16.8-29.6-32.8c-2.4-9.4-2.1-18.7,1.4-27.8
		c5.6-14.7,16.1-24.2,31.1-28.8c5.1-1.6,10.3-1.9,15.6-2c5.1-0.1,10.2-0.1,15.3-0.1c0.5,0,1,0,1.5,0c0.4,0,0.7-0.2,0.7-0.6
		c0-0.6,0-1.2,0-1.7c0-4.6,0-9.2,0-13.8c0-3.7,0.2-7.5,0.8-11.2c0.5-3.7,1.5-7.3,3.1-10.7c3.2-7,7.4-13.2,13.2-18.1
		c5.5-4.7,11.9-7.7,19-9.3c4-0.9,8.1-1.4,12.2-1.4c11.2,0.2,21.1,4,29.6,11.3c8.3,7.2,13.5,16.2,15.5,27c0.5,2.8,0.7,5.6,0.8,8.4
		c0.1,4.2,0.1,8.5,0.2,12.7c0,0.7-0.2,1.1-0.9,1.3c-3.6,1.2-7.2,2.3-10.9,3.5C185.9,72.6,185.7,72.6,185.6,72.6"/>
	<path id="XMLID_8_" class="st1" d="M185.4,173.9c0-5.4,0-10.8,0-16.2c0-0.6,0-1.2,0-1.7c0-0.4,0.3-0.7,0.7-0.7c0.6,0,1.3,0,1.9,0
		c10.3,0,20.6,0,30.9,0c11.5,0,20.7-4.8,27.6-13.9c3-4,4.9-8.6,5.7-13.6c1-6-0.1-11.7-2.6-17.2c-1.7-3.5-3.8-6.8-6.7-9.5
		c-2.5-2.4-5.4-4-8.8-4.7c-2.2-0.5-4.5-0.4-6.7-0.2c-3.9,0.4-7.6,1.4-11,3.4c-2.6,1.5-5,3.2-7.3,4.9c-2.1,1.5-4.1,3.1-6.4,4.4
		c-2.5,1.4-5.1,2.3-8,2.3c-6.5,0-12.9,0-19.4-0.1c-1.4,0-2.9-0.2-4.3-0.3c-0.8-0.1-1.5-0.3-2.2-0.9c-0.6-0.5-0.6-1.3,0-1.9
		c0.7-0.8,1.7-1.1,2.6-1.4c1.7-0.5,3.5-1,5.2-1.4c3.5-0.9,7-1.7,10.4-2.7c0.9-0.2,2-0.2,2.5-1.3c-0.7-0.7-1.7-0.8-2.5-1.1
		c-2.8-0.9-5.7-0.8-8.6-0.5c-3.6,0.4-7.2,1.3-10.6,2.6c-4.1,1.6-7.9,3.8-11.3,6.6c-4.8,3.8-9.8,7.3-14.9,10.7
		c-1.1,0.8-2.3,1.5-3.7,1.8c-1.3,0.3-2.4-0.1-3-1c-0.7-1-0.6-2.1,0.2-3.2c0.3-0.5,0.8-0.9,1.2-1.2c2.9-2.7,5.8-5.3,8.7-8
		c4-3.7,8-7.5,12-11.1c6.6-6,14-10.8,22.3-14.2c7-2.9,14.2-5.2,21.6-6.5c3.3-0.6,6.7-1,10.1-1.1c0.9,0,1.9-0.1,2.8-0.2
		c0.3,0,0.6-0.1,0.9,0c3.1,0.3,6.2,0.2,9.2,0.6c3.1,0.4,6.1,0.9,9.1,1.8c5.8,1.7,11.1,4.3,15.8,8.1c8.4,6.6,13.7,15.2,16.4,25.5
		c1.4,5.5,1.7,11.1,1.3,16.7c-0.3,4.5-1.5,8.8-3.2,12.9c-2.5,6-6,11.3-10.7,15.8c-6.6,6.3-14.4,10.5-23.3,12.3
		c-3.9,0.8-7.8,1.2-11.8,1.2c-5.1,0-10.2,0-15.3,0c-0.6,0-1.2,0-1.7,0c-0.4,0-0.7,0.2-0.7,0.7c0,0.6-0.1,1.3-0.1,1.9
		c0,5.8,0,11.5,0,17.3c-0.2,11.8-4.3,22.2-11.8,31.2c-3.7,4.4-8.1,7.9-13.2,10.6c-4.1,2.1-8.5,3.5-13,4.4c-4.3,0.8-8.7,1.1-13.1,0.8
		c-3-0.2-6-0.7-8.9-1.6c-7.2-2.1-13.5-5.6-19-10.7c-6.1-5.6-10.4-12.4-12.9-20.3c-1.3-4.2-2-8.5-2.2-12.9c-0.2-4-0.2-8-0.2-12.1
		c0-0.4,0-0.9,0-1.3c-0.1-1,0.4-1.4,1.3-1.7c3.4-1.1,6.8-2.2,10.3-3.3c0.7-0.2,0.9-0.1,1,0.7c0.3,4.2,0.3,8.3,0.2,12.5
		c0,1.1-0.2,2.1-0.2,3.2c0,6,1.4,11.7,4.5,16.9c3.7,6.3,8.8,11,15.4,13.9c2.8,1.2,5.7,2,8.7,2.5c2.7,0.5,5.5,0.5,8.2,0.3
		c6.4-0.5,12.2-2.6,17.4-6.4c4.1-3,7.3-6.7,9.6-11.2c1.8-3.4,3-7.1,3.6-11c0.3-1.9,0.4-3.7,0.4-5.6
		C185.4,183.5,185.4,178.7,185.4,173.9"/>
	<path id="XMLID_7_" class="st0" d="M163.5,272c0-5.3,0-10.5,0-15.8c0-0.7,0-1.5,0.1-2.2c0.1-1,0.6-1.5,1.6-1.6c0.5-0.1,1.1,0,1.7,0
		c7.7,0,15.3,0,23,0c0.3,0,0.6,0,0.8,0c2.2,0.1,2.5,0.4,2.6,2.6c0,1,0,2,0,3c-0.1,1.2-0.6,1.6-1.7,1.7c-0.6,0.1-1.3,0-1.9,0
		c-4.8,0-9.6,0-14.4,0c-0.7,0-1.5,0-2.2,0.1c-0.5,0-0.9,0.4-0.9,0.9c0,2.2,0,4.4,0,6.6c0,0.7,0.4,1,1.1,1c0.6,0,1.3,0,1.9,0
		c4,0,7.9,0,11.9,0c0.6,0,1.3,0,1.9,0c1.3,0.1,1.8,0.6,1.9,1.9c0.1,1.2,0.1,2.4,0,3.6c-0.1,1.4-0.5,1.9-1.8,2c-0.6,0.1-1.3,0-1.9,0
		c-4.1,0-8.1,0-12.2,0c-0.6,0-1.3,0-1.9,0.1c-0.5,0-0.8,0.4-0.8,0.9c0,2.1,0,4.2,0,6.4c0,0.5,0.4,0.9,0.9,0.9
		c0.7,0.1,1.5,0.1,2.2,0.1c4.4,0,8.9,0,13.3,0c0.6,0,1.1,0,1.7,0c2.9,0,3.1,0.2,3.1,3.2c0,0.9,0,1.9-0.1,2.8
		c-0.1,0.9-0.6,1.3-1.4,1.4c-0.5,0.1-1.1,0-1.7,0c-7.9,0-15.7,0-23.6,0c-2.8,0-3-0.2-3-3C163.5,283.1,163.5,277.5,163.5,272"/>
	<path id="XMLID_6_" class="st0" d="M216.6,292.4c-5.1-0.1-9.9-1.2-14.2-4c-0.2-0.1-0.3-0.2-0.5-0.3c-2.4-1.6-2.5-2-0.8-4.4
		c0.6-0.9,1.3-1.8,1.9-2.7c0.5-0.7,1.2-0.9,1.9-0.5c0.6,0.3,1.1,0.7,1.7,1c2.9,1.6,6,2.8,9.4,3.1c1.6,0.1,3.1,0,4.7-0.5
		c2.2-0.8,3.6-2.3,3.4-3.9c-0.2-2.1-1.8-2.9-3.5-3.4c-2-0.6-4.2-0.9-6.2-1.3c-1.7-0.4-3.4-0.7-5.1-1.2c-2.3-0.6-4.5-1.8-6.3-3.4
		c-1.5-1.3-2.4-3-2.9-4.9c-1.1-5.1,1-9.6,5.6-12.1c2.1-1.1,4.3-1.6,6.6-1.9c5.6-0.6,10.9,0.3,15.7,3.2c0.2,0.1,0.5,0.3,0.7,0.4
		c1.5,0.8,2.1,1.8,0.6,3.6c-0.7,0.9-1.3,1.8-2,2.7c-1,1.3-1.4,1.4-2.8,0.7c-0.4-0.2-0.8-0.5-1.2-0.7c-2.1-1.1-4.2-1.8-6.5-2.2
		c-1.9-0.3-3.7-0.1-5.5,0.5c-0.7,0.2-1.4,0.6-1.9,1c-1.4,1.2-1.3,3.2,0.1,4.3c0.9,0.7,2,1,3.1,1.3c2.5,0.6,5.1,1.1,7.6,1.7
		c1.5,0.4,3.1,0.7,4.6,1.2c1.5,0.5,2.9,1.2,4.1,2.2c2.2,1.8,3.5,4,3.6,6.9c0,1.1,0,2.2,0,3.3c-0.3,3.1-1.8,5.6-4.3,7.4
		c-2.2,1.6-4.8,2.4-7.5,2.7C219.4,292.3,218,292.3,216.6,292.4"/>
	<path id="XMLID_5_" class="st0" d="M254.2,292.3c-4.9,0-9.7-1.2-14.1-4c-2.6-1.6-2.8-2.2-0.9-4.8c0.6-0.8,1.1-1.7,1.8-2.5
		c0.6-0.7,1.2-0.9,2-0.5c0.7,0.3,1.3,0.8,1.9,1.1c2.8,1.5,5.7,2.6,8.9,2.9c1.3,0.1,2.6,0.1,3.9-0.2c1.3-0.2,2.5-0.8,3.4-1.7
		c1.6-1.6,1.4-3.7-0.4-5c-0.8-0.6-1.8-0.9-2.8-1.1c-2.6-0.5-5.3-1-7.9-1.6c-1.3-0.3-2.7-0.7-4-1.1c-1.5-0.5-2.8-1.3-4.1-2.2
		c-5.9-4.1-4.9-14.2,1.2-17.4c2.3-1.2,4.6-1.9,7.1-2.3c5.2-0.6,10.1,0,14.8,2.5c0.8,0.4,1.6,0.9,2.4,1.4c1.1,0.8,1.3,1.5,0.6,2.6
		c-0.9,1.3-1.8,2.6-2.8,3.8c-0.5,0.7-1.2,0.8-2,0.5c-0.6-0.3-1.1-0.6-1.7-0.9c-2-1.1-4.1-1.8-6.3-2.1c-2-0.3-3.9-0.2-5.7,0.4
		c-0.7,0.2-1.4,0.6-1.9,1c-1.5,1.2-1.4,3.1,0.1,4.3c0.9,0.7,2,1,3.1,1.3c2.5,0.6,5.1,1.1,7.6,1.7c1.4,0.3,2.9,0.7,4.3,1.1
		c0.7,0.2,1.4,0.5,2.1,0.8c3.6,1.8,5.8,4.5,6.1,8.6c0.4,6-2.2,10-7.3,12.1C260.4,292.1,257.5,292.4,254.2,292.3"/>
	<path id="XMLID_4_" class="st0" d="M95.9,292.4c-6.8,0-12.4-2.6-16.7-7.8c-5.8-7.1-6-17.1-0.4-24.4c8.6-11.2,25-11.1,33.7-0.5
		c2,2.4,1.8,2.9-1.1,4.1c-0.9,0.4-1.9,0.7-2.8,1.1c-1.2,0.5-2.3,0.4-3.2-0.8c-0.6-0.7-1.3-1.3-2-1.9c-7.4-5.8-16.7-1.7-19.4,6
		c-1.9,5.5,0.4,11.5,5.5,14.6c4.8,3,11,2.3,15.1-1.7c0.4-0.4,0.8-0.8,1.1-1.2c0.7-0.9,1.6-1.2,2.7-0.7c1.5,0.6,2.9,1.1,4.4,1.7
		c1.2,0.5,1.4,1.3,0.7,2.4c-1.2,1.9-2.7,3.5-4.5,4.8C105,290.9,100.7,292.4,95.9,292.4"/>
	<path id="XMLID_3_" class="st0" d="M139.1,292.4c-10,0.1-18.3-6.8-20.4-15.3c-1.9-7.8,0.3-14.5,6.2-19.8c8.7-7.9,22.3-7.1,30.2,1.7
		c0.7,0.7,1.3,1.6,1.8,2.5c0.4,0.6,0.1,1.4-0.5,1.7c-1.8,0.8-3.6,1.5-5.4,2.1c-0.8,0.3-1.4,0-2-0.6c-0.5-0.5-1-1.1-1.6-1.6
		c-4.1-3.6-9.3-4.4-13.9-2c-4.5,2.3-7.4,7.5-6.9,12.4c0.6,5.3,4.3,9.9,9.5,11.1c4.5,1.1,8.4-0.1,11.8-3.3c0.5-0.4,0.9-1,1.3-1.5
		c0.5-0.6,1.2-0.8,2-0.5c1.6,0.6,3.3,1.2,4.9,1.9c1,0.5,1.3,1.3,0.6,2.3c-0.6,0.8-1.2,1.7-1.9,2.4
		C150.6,290.2,145.3,292.3,139.1,292.4"/>
	<path id="XMLID_12_" class="st0" d="M69.5,291.6c-0.8,0-1.7,0-2.5,0c-1.2,0-1.9-0.5-2.4-1.5c-0.6-1.1-1.1-2.1-1.7-3.2
		c-0.4-0.9-1.1-1.4-2.1-1.4c-5.1,0-10.2,0.1-15.2,0c-1.2,0-1.9,0.5-2.3,1.5c-0.5,1.1-1.1,2.1-1.6,3.2c-0.5,0.9-1.2,1.3-2.2,1.3
		c-1.8,0-3.7,0-5.5,0c-1.2,0-1.7-0.7-1.2-1.9c0.3-0.7,0.7-1.3,1-2c5.8-11,11.7-22,17.5-33c0.3-0.6,0.7-1.3,1.2-1.9
		c0.4-0.5,1.3-0.5,1.7,0.1c0.4,0.5,0.7,1.1,1,1.7c6,11.2,12,22.5,17.9,33.7c1.5,2.8,1.2,3.2-2,3.3C70.4,291.6,69.9,291.6,69.5,291.6
		L69.5,291.6z M57.6,278.3c0.2-0.6,0-1-0.2-1.4c-1.2-2.4-2.4-4.8-3.5-7.2c-0.2-0.4-0.3-0.8-0.9-0.8c-2.7,4.9-4,7.6-4.3,9.5
		C51.7,278.3,54.7,278.5,57.6,278.3"/>
</g>
</svg>
